# AST/ASF file generated using VICON BodyLanguage
# -----------------------------------------------
:version 1.10
:name VICON
:units
  mass 1.0
  length 0.45
  angle deg
:documentation
   .ast/.asf automatically generated from VICON data using
   VICON BodyBuilder and BodyLanguage model FoxedUp or BRILLIANT.MOD
:root
   order TX TY TZ RX RY RZ
   axis XYZ
   position 0 0 0  
   orientation 0 0 0 
:bonedata
  begin
     id 1 
     name lhipjoint
     direction 0.643824 -0.71708 0.266994 
     length 2.52133 
     axis 0 0 0  XYZ
  end
  begin
     id 2 
     name lfemur
     direction 0.34202 -0.939693 0  
     length 7.51824  
     axis 0 0 20  XYZ
    dof rx ry rz
    limits (-160.0 20.0)
           (-70.0 70.0)
           (-60.0 70.0)
  end
  begin
     id 3 
     name ltibia
     direction 0.34202 -0.939693 0   
     length 7.3685   
     axis 0 0 20   XYZ
    dof rx
    limits (-10.0 170.0)
  end
  begin
     id 4 
     name lfoot
     direction 0.105419 -0.289636 0.951314   
     length 2.20972   
     axis -90 7.62852e-016 20   XYZ
    dof rx rz
    limits (-45.0 90.0)
           (-70.0 20.0)
  end
  begin
     id 5 
     name ltoes
     direction 1.53549e-011 -4.21833e-011 1   
     length 1.10139   
     axis -90 7.62852e-016 20   XYZ
    dof rx
    limits (-90.0 20.0)
  end
  begin
     id 6 
     name rhipjoint
     direction -0.608823 -0.743445 0.276811   
     length 2.43192  
     axis 0 0 0  XYZ 
  end
  begin
     id 7 
     name rfemur
     direction -0.34202 -0.939693 0   
     length 7.69715   
     axis 0 0 -20   XYZ
    dof rx ry rz
    limits (-160.0 20.0)
           (-70.0 70.0)
           (-70.0 60.0)
  end
  begin
     id 8 
     name rtibia
     direction -0.34202 -0.939693 0   
     length 7.44924   
     axis 0 0 -20   XYZ
    dof rx
    limits (-10.0 170.0)
 end
 begin
     id 9 
     name rfoot
     direction -0.103614 -0.284677 0.953007   
     length 2.22623  
     axis -90 -7.62852e-016 -20   XYZ
    dof rx rz
    limits (-45.0 90.0)
           (-20.0 70.0)
  end
  begin
     id 10 
     name rtoes
     direction -1.53537e-011 -4.22026e-011 1   
     length 1.11   
     axis -90 -7.62852e-016 -20   XYZ
    dof rx
    limits (-90.0 20.0)
  end
  begin
     id 11 
     name lowerback
     direction -0.0101212 0.99662 -0.0815298   
     length 2.08277   
     axis 0 0 0   XYZ
    dof rx ry rz
    limits (-20.0 45.0)
           (-30.0 30.0)
           (-30.0 30.0)
  end
  begin
     id 12 
     name upperback
     direction 0.024314 0.999591 -0.0150645   
     length 2.08524   
     axis 0 0 0   XYZ
    dof rx ry rz
    limits (-20.0 45.0)
           (-30.0 30.0)
           (-30.0 30.0)
  end
  begin
     id 13 
     name thorax
     direction 0.0285959 0.999323 0.0231357   
     length 2.09645   
     axis 0 0 0   XYZ
    dof rx ry rz
    limits (-20.0 45.0)
           (-30.0 30.0)
           (-30.0 30.0)
  end
  begin
     id 14 
     name lowerneck
     direction -0.065512 0.979301 0.191515   
     length 1.63798   
     axis 0 0 0   XYZ
    dof rx ry rz
    limits (-20.0 45.0)
           (-30.0 30.0)
           (-30.0 30.0)
  end
  begin
     id 15 
     name upperneck
     direction 0.0498479 0.98191 -0.182667   
     length 1.68731   
     axis 0 0 0   XYZ
    dof rx ry rz
    limits (-20.0 45.0)
           (-30.0 30.0)
           (-30.0 30.0)
  end
  begin
     id 16
     name head
     direction 0.0230358 0.996257 -0.0833175  
     length 1.69785  
     axis 0 0 0   XYZ
    dof rx ry rz
    limits (-20.0 45.0)
           (-30.0 30.0)
           (-30.0 30.0)
  end
  begin
     id 17 
     name lclavicle
     direction 0.967963 0.201165 -0.150269  
     length 3.63976  
     axis 0 0 0   XYZ
    dof ry rz
    limits (-20.0 10.0)
           (0.0 20.0)
  end
  begin
     id 18 
     name lhumerus
     direction 1 -4.48954e-011 -2.92837e-028   
     length 5.32462   
     axis 180 -30 -90   XYZ
    dof rx ry rz
    limits (-60.0 90.0)
           (-90.0 90.0)
           (-90.0 90.0)
  end
  begin
     id 19
     name lradius
     direction 1 -4.48958e-011 -6.39511e-027   
     length 3.48402   
     axis 180 -30 -90   XYZ
    dof rx
    limits (-10.0 170.0)
  end
  begin
     id 20
     name lwrist
     direction 1 -4.48975e-011 -1.1413e-026   
     length 1.74201   
     axis 6.88575e-015 90 90   XYZ
    dof ry
    limits (-180.0 0.0)
 end
  begin
     id 21 
     name lhand
     direction 1 -4.48899e-011 -2.28192e-026   
     length 0.572476   
     axis 1.45643e-014 90 90   XYZ
    dof rx rz
    limits (-90.0 90.0)
           (-45.0 45.0)
  end
  begin
     id 22 
     name lfingers
     direction 1 -4.49155e-011 -4.5684e-026   
     length 0.461545   
     axis 2.91283e-014 90 90   XYZ
    dof rx
    limits (0.0 90.0)
  end
  begin
     id 23
     name lthumb
     direction 0.707107 -6.34943e-011 0.707107   
     length 0.662688   
     axis -90 45 -2.25915e-014   XYZ
    dof rx rz
    limits (-45.0 45.0)
           (-45.0 45.0)
  end
  begin
     id 24 
     name rclavicle
     direction -0.964103 0.264019 -0.0282629   
     length 3.54491  
     axis 0 0 0   XYZ 
    dof ry rz
    limits (-10.0 20.0)
           (-20.0 0.0)
  end
  begin
     id 25 
     name rhumerus
     direction -1 -4.48964e-011 -2.45032e-027  
     length 5.33589   
     axis 180 30 90   XYZ
    dof rx ry rz
    limits (-90.0 60.0)
           (-90.0 90.0)
           (-90.0 90.0)
  end
  begin
     id 26 
     name rradius
     direction -1 -4.48987e-011 -1.55093e-027   
     length 3.64134   
     axis 180 30 90   XYZ
    dof rx
    limits (-10.0 170.0)
  end
  begin
     id 27 
     name rwrist
     direction -1 -4.4897e-011 -1.14128e-026   
     length 1.82067   
     axis 6.88575e-015 -90 -90   XYZ
    dof ry
    limits (-180.0 0.0)
  end
  begin
     id 28
     name rhand
     direction -1 -4.49021e-011 -2.28301e-026   
     length 0.734811   
     axis 1.45643e-014 -90 -90   XYZ
    dof rx rz
    limits (-90.0 90.0)
           (-45.0 45.0)
  end
  begin
     id 29
     name rfingers
     direction -1 -4.48862e-011 -4.56319e-026   
     length 0.592424   
     axis 2.91283e-014 -90 -90   XYZ
    dof rx
    limits (0.0 90.0)
  end
  begin
     id 30
     name rthumb
     direction -0.707107 -6.34978e-011 0.707107   
     length 0.850605   
     axis -90 -45 2.25915e-014   XYZ
    dof rx rz
    limits (-45.0 45.0)
           (-45.0 45.0)
  end
:hierarchy
  begin
    root lhipjoint rhipjoint lowerback
    lhipjoint lfemur
    lfemur ltibia
    ltibia lfoot
    lfoot ltoes
    rhipjoint rfemur
    rfemur rtibia
    rtibia rfoot
    rfoot rtoes
    lowerback upperback
    upperback thorax
    thorax lowerneck lclavicle rclavicle
    lowerneck upperneck
    upperneck head
    lclavicle lhumerus
    lhumerus lradius
    lradius lwrist
    lwrist lhand lthumb
    lhand lfingers
    rclavicle rhumerus
    rhumerus rradius
    rradius rwrist
    rwrist rhand rthumb
    rhand rfingers
  end

#!OML:ASF F:\VICON\USERDATA\INSTALL\rory3\rory3.ASF
:FULLY-SPECIFIED
:DEGREES
77
root -0.610049 17.6746 13.4598 -174.477 -3.00192 -182.829
lowerback 2.75072 -0.44177 -6.48899
upperback -0.117752 -0.777909 1.58162
thorax -1.55902 -0.331401 5.31901
lowerneck -15.2246 2.68179 -10.4473
upperneck 40.0823 1.42247 3.34906
head 16.9918 -2.1496 3.15317
rclavicle 7.20594e-015 1.98785e-014
rhumerus -36.9153 -14.5431 -75.7713
rradius 33.2907
rwrist 19.1402
rhand -19.8689 2.59228
rfingers 7.12502
rthumb 6.46634 -27.289
lclavicle 7.20594e-015 1.98785e-014
lhumerus -27.7463 13.1838 77.1975
lradius 30.8661
lwrist -0.797077
lhand -19.2684 22.9746
lfingers 7.12502
lthumb 7.04611 52.8373
rfemur -21.3103 -0.0953613 19.6427
rtibia 39.9488
rfoot -19.0664 -0.318603
rtoes 8.42734
lfemur -13.0065 1.24902 -25.4655
ltibia 24.7083
lfoot -15.093 -2.95002
ltoes -5.41909
78
root -0.610805 17.6699 13.4451 -174.504 -2.81174 -182.874
lowerback 2.65282 -0.424887 -6.56971
upperback -0.0761121 -0.750436 1.59196
thorax -1.46363 -0.321721 5.37298
lowerneck -15.2477 2.71767 -10.3692
upperneck 40.0762 1.52554 3.17709
head 16.9897 -2.12001 3.07875
rclavicle -1.54058e-015 -3.57812e-015
rhumerus -36.9545 -14.5737 -75.774
rradius 32.9846
rwrist 19.2012
rhand -19.7878 2.4709
rfingers 7.12502
rthumb 6.54465 -27.408
lclavicle -1.54058e-015 -3.57812e-015
lhumerus -27.6604 12.8247 77.3522
lradius 31.6898
lwrist -0.650744
lhand -17.7485 30.6365
lfingers 7.12502
lthumb 8.51305 60.4449
rfemur -21.0823 -0.0716554 19.6634
rtibia 39.5105
rfoot -19.1624 -0.816228
rtoes 8.07565
lfemur -12.9721 1.27101 -25.5278
ltibia 24.8307
lfoot -15.1477 -2.90706
ltoes -5.11576
79
root -0.602363 17.6707 13.4454 -174.318 -2.9163 -182.819
lowerback 2.61783 -0.488115 -6.56582
upperback -0.152229 -0.833092 1.62005
thorax -1.51076 -0.35886 5.40328
lowerneck -15.3455 2.73477 -10.2936
upperneck 40.124 1.56444 3.11265
head 17.0398 -2.10526 3.04483
rclavicle -8.94531e-016 1.82882e-014
rhumerus -37.018 -14.6893 -75.8041
rradius 32.6892
rwrist 19.3963
rhand -19.7075 2.39198
rfingers 7.12502
rthumb 6.6222 -27.4845
lclavicle -8.94531e-016 1.82882e-014
lhumerus -27.3593 12.8637 77.2766
lradius 32.1306
lwrist -1.59775
lhand -19.0761 26.656
lfingers 7.12502
lthumb 7.23169 56.5125
rfemur -21.1167 -0.160012 19.8328
rtibia 39.0659
rfoot -19.3598 -1.27291
rtoes 7.6026
lfemur -13.2696 1.24209 -25.4274
ltibia 24.984
lfoot -15.1415 -2.99621
ltoes -5.32551
80
root -0.585616 17.6733 13.4633 -173.874 -3.31361 -182.743
lowerback 2.61412 -0.641407 -6.5587
upperback -0.365865 -1.04035 1.67002
thorax -1.69989 -0.448922 5.46109
lowerneck -15.3747 2.74327 -10.226
upperneck 40.1125 1.57989 3.07971
head 17.0409 -2.09043 3.02134
rclavicle -8.69683e-015 3.97569e-015
rhumerus -37.1247 -14.9204 -75.7906
rradius 32.4325
rwrist 19.7143
rhand -19.6229 2.63137
rfingers 7.12502
rthumb 6.70387 -27.2425
lclavicle -8.69683e-015 3.97569e-015
lhumerus -27.0282 12.6445 77.2908
lradius 32.4544
lwrist -1.64441
lhand -18.7632 26.8057
lfingers 7.12502
lthumb 7.53376 56.6515
rfemur -21.4424 -0.270529 20.0541
rtibia 38.6504
rfoot -19.5296 -1.65167
rtoes 7.91111
lfemur -13.9369 1.22585 -25.2591
ltibia 25.1263
lfoot -15.0482 -3.40548
ltoes -5.51517
81
root -0.577028 17.6733 13.4683 -173.624 -3.42298 -182.655
lowerback 2.61644 -0.726288 -6.47098
upperback -0.501159 -1.1531 1.72097
thorax -1.82593 -0.497502 5.47036
lowerneck -15.3917 2.79584 -10.2597
upperneck 40.096 1.6823 3.08192
head 17.0251 -2.05192 3.04626
rclavicle 1.28216e-014 -9.54166e-015
rhumerus -37.225 -14.9381 -75.8188
rradius 32.2095
rwrist 19.8316
rhand -19.6116 2.56937
rfingers 7.12502
rthumb 6.71473 -27.3042
lclavicle 1.28216e-014 -9.54166e-015
lhumerus -26.9677 12.2172 77.4073
lradius 32.9409
lwrist -0.813788
lhand -17.1062 31.136
lfingers 7.12502
lthumb 9.13287 60.9182
rfemur -21.5394 -0.311657 20.2434
rtibia 38.27
rfoot -19.7327 -1.85769
rtoes 7.32904
lfemur -14.3082 1.25417 -25.126
ltibia 25.248
lfoot -15.0586 -3.57706
ltoes -6.01505
82
root -0.573845 17.673 13.4614 -173.629 -3.45225 -182.772
lowerback 2.70612 -0.772681 -6.51396
upperback -0.511609 -1.22306 1.68561
thorax -1.8772 -0.529907 5.46224
lowerneck -15.4225 2.84389 -10.2233
upperneck 40.0637 1.78806 3.02495
head 17.0065 -2.00593 3.03309
rclavicle -1.31695e-014 1.39149e-014
rhumerus -37.2901 -15.0032 -75.849
rradius 31.9643
rwrist 19.9408
rhand -19.5506 2.39631
rfingers 7.12502
rthumb 6.77362 -27.4753
lclavicle -1.31695e-014 1.39149e-014
lhumerus -26.8879 11.7572 77.4976
lradius 33.417
lwrist -0.391799
lhand -18.8741 28.6009
lfingers 7.12502
lthumb 7.42667 58.4505
rfemur -21.3413 -0.419243 20.1882
rtibia 37.9691
rfoot -19.9624 -2.05358
rtoes 6.14177
lfemur -14.2999 1.28925 -25.253
ltibia 25.3233
lfoot -15.1578 -3.60259
ltoes -5.81088
